# xmcd
#
# Track frame offsets:
#	150
#	22578
#	38506
#	54408
#	75810
#	100474
#	122115
#	142255
#	161570
#	178297
#	200224
#	216626
#	241828
#	268731
#	289958
#	305061
#
# Disc length: 4265 seconds
# Revision: 0
# Processed by: cddbd v1.5.2PL0 Copyright (c) Steve Scherf et al.
# Submitted via: dBpowerAMP V12.0
#
DISCID=ee10a710
DTITLE=Various Artist - Soul Love Vol. 3
DYEAR=1993
DGENRE=Soul
TTITLE0=Sade - Smooth Operator
TTITLE1=The Manhattans - Kiss And Say Goodbye
TTITLE2=Chi-Lites - Oh Girl
TTITLE3=Patti LaBelle - If Only You Konw
TTITLE4=The Jacksons - Show You The Way To Go
TTITLE5=Billy Paul - Me And Mrs. Jones
TTITLE6=Lou Rawls - You'll Never Find Another Love Like Mine
TTITLE7=Bill Withers - Lean On Me
TTITLE8=MFSB Feat. The Three Degrees - TSOP (The Sound Of Philadelphia)
TTITLE9=Earth, Wind and Fire - Shining Star
TTITLE10=Heatwave - Boogie Nights
TTITLE11=The Isley Brothers - That Lady (Part 1 and 2)
TTITLE12=Denice Williams - Free
TTITLE13=Alyson Williams - Heaven
TTITLE14=Harold Melvin and The Blue Notes - If You Don't Know Me By Now
TTITLE15=Marvin Gaye - Fly Me To The Moon (In Other Words)
EXTD=
EXTT0=
EXTT1=
EXTT2=
EXTT3=
EXTT4=
EXTT5=
EXTT6=
EXTT7=
EXTT8=
EXTT9=
EXTT10=
EXTT11=
EXTT12=
EXTT13=
EXTT14=
EXTT15=
PLAYORDER=
